<?xml version="1.0" encoding="UTF-8"?>
<svg xmlns="http://www.w3.org/2000/svg" xmlns:xlink="http://www.w3.org/1999/xlink" width="1440pt" height="809.999993pt" viewBox="0 0 1440 809.999993" version="1.2">
<defs>
<clipPath id="clip1">
  <path d="M 14.957031 0.191406 L 182.207031 0.191406 L 182.207031 167.054688 L 14.957031 167.054688 Z M 14.957031 0.191406 "/>
</clipPath>
<clipPath id="clip2">
  <path d="M 136.054688 439.585938 L 303.304688 439.585938 L 303.304688 606.449219 L 136.054688 606.449219 Z M 136.054688 439.585938 "/>
</clipPath>
<clipPath id="clip3">
  <path d="M 588.402344 44.851562 L 755.652344 44.851562 L 755.652344 211.714844 L 588.402344 211.714844 Z M 588.402344 44.851562 "/>
</clipPath>
<clipPath id="clip4">
  <path d="M 755.535156 574.492188 L 922.785156 574.492188 L 922.785156 741.355469 L 755.535156 741.355469 Z M 755.535156 574.492188 "/>
</clipPath>
<clipPath id="clip5">
  <path d="M 1336.226562 691.714844 L 1440 691.714844 L 1440 810 L 1336.226562 810 Z M 1336.226562 691.714844 "/>
</clipPath>
<clipPath id="clip6">
  <path d="M 1306.566406 224.535156 L 1440 224.535156 L 1440 391.398438 L 1306.566406 391.398438 Z M 1306.566406 224.535156 "/>
</clipPath>
</defs>
<g id="surface1">
<rect x="0" y="0" width="1440" height="809.999993" style="fill:rgb(100%,100%,100%);fill-opacity:1;stroke:none;"/>
<rect x="0" y="0" width="1440" height="809.999993" style="fill:rgb(100%,100%,100%);fill-opacity:1;stroke:none;"/>
<rect x="0" y="0" width="1440" height="809.999993" style="fill:rgb(27.839661%,87.059021%,92.549133%);fill-opacity:1;stroke:none;"/>
<g clip-path="url(#clip1)" clip-rule="nonzero">
<path style=" stroke:none;fill-rule:nonzero;fill:rgb(58.039856%,92.158508%,95.689392%);fill-opacity:1;" d="M 107.535156 65.863281 C 104.625 65.863281 102.113281 63.367188 102.113281 60.445312 C 102.113281 57.519531 104.625 55.023438 107.535156 55.023438 C 110.460938 55.023438 112.96875 57.519531 112.96875 60.445312 C 112.96875 63.578125 110.460938 65.863281 107.535156 65.863281 Z M 105.457031 119.464844 C 101.714844 119.464844 98.789062 116.539062 98.789062 112.796875 C 98.789062 109.042969 101.714844 106.117188 105.457031 106.117188 C 109.210938 106.117188 112.136719 109.042969 112.136719 112.796875 C 112.136719 116.539062 109.003906 119.464844 105.457031 119.464844 Z M 68.542969 80.667969 C 64.785156 80.667969 61.875 77.757812 61.875 74 C 61.875 70.242188 64.785156 67.320312 68.542969 67.320312 C 72.300781 67.320312 75.226562 70.242188 75.226562 74 C 75.226562 77.757812 72.300781 80.667969 68.542969 80.667969 Z M 175.125 84.839844 C 172.40625 84.839844 169.898438 86.515625 168.859375 88.804688 L 144.878906 88.804688 C 145.085938 87.347656 145.085938 85.6875 145.085938 84.007812 L 145.085938 83.800781 L 157.378906 71.507812 C 159.265625 72.335938 161.761719 71.90625 163.230469 70.453125 C 165.308594 68.371094 165.308594 65.03125 163.230469 62.953125 C 161.152344 60.859375 157.8125 60.859375 155.71875 62.953125 C 154.054688 64.617188 153.847656 66.902344 154.46875 68.789062 L 144.671875 78.589844 C 144.253906 74.625 143.199219 70.660156 141.746094 67.109375 L 154.675781 54.191406 C 157.171875 55.230469 159.890625 54.609375 161.96875 52.722656 C 164.683594 50.019531 164.683594 45.847656 161.96875 43.132812 C 159.265625 40.429688 155.09375 40.429688 152.390625 43.132812 C 150.503906 45.015625 149.882812 47.925781 150.921875 50.4375 L 139.25 62.105469 C 136.742188 57.3125 133.398438 53.140625 129.4375 49.605469 L 132.570312 39.167969 C 134.648438 38.957031 136.535156 37.503906 137.15625 35.425781 C 137.988281 32.5 136.535156 29.574219 133.621094 28.742188 C 130.699219 27.910156 127.773438 29.367188 126.941406 32.292969 C 126.316406 34.371094 126.941406 36.671875 128.605469 38.128906 L 125.886719 47.09375 C 122.976562 45.015625 119.84375 43.132812 116.519531 41.675781 L 125.070312 24.15625 C 127.566406 24.363281 130.28125 22.90625 131.320312 20.398438 C 132.984375 17.074219 131.53125 13.109375 128.1875 11.429688 C 124.847656 9.765625 120.882812 11.222656 119.21875 14.5625 C 117.972656 17.074219 118.390625 19.984375 120.066406 21.867188 L 111.292969 39.789062 C 107.964844 38.75 104.625 38.128906 101.074219 37.917969 L 101.074219 10.597656 C 102.960938 9.765625 104.417969 7.894531 104.417969 5.59375 C 104.417969 2.667969 101.921875 0.175781 98.996094 0.175781 C 96.070312 0.175781 93.578125 2.667969 93.578125 5.59375 C 93.578125 7.894531 94.824219 9.765625 96.902344 10.597656 L 96.902344 37.085938 C 92.523438 37.085938 87.933594 37.917969 83.761719 39.167969 L 80.4375 17.488281 C 82.722656 16.019531 83.96875 13.523438 83.554688 10.804688 C 82.929688 7.050781 79.605469 4.554688 75.847656 5.179688 C 72.09375 5.800781 69.582031 9.144531 70.207031 12.898438 C 70.636719 15.601562 72.714844 17.695312 75.226562 18.320312 L 78.757812 41.050781 C 76.472656 42.089844 74.378906 43.132812 72.507812 44.394531 L 67.089844 38.957031 C 67.917969 37.085938 67.503906 34.578125 65.839844 33.125 C 63.746094 31.042969 60.40625 31.042969 58.328125 33.125 C 56.234375 35.21875 56.234375 38.542969 58.328125 40.636719 C 59.992188 42.300781 62.292969 42.507812 64.164062 41.882812 L 69.167969 46.886719 C 65.632812 49.605469 62.5 52.929688 59.78125 56.480469 L 48.320312 45.015625 C 49.359375 42.507812 48.734375 39.789062 46.851562 37.710938 C 44.148438 34.996094 39.976562 34.996094 37.257812 37.710938 C 34.554688 40.429688 34.554688 44.585938 37.257812 47.304688 C 39.144531 49.1875 42.054688 49.8125 44.5625 48.757812 L 56.871094 61.066406 C 53.949219 66.488281 51.855469 72.335938 51.230469 78.796875 L 39.976562 71.90625 C 40.390625 69.414062 39.144531 66.695312 36.84375 65.238281 C 33.722656 63.367188 29.539062 64.199219 27.457031 67.320312 C 25.585938 70.453125 26.417969 74.625 29.761719 76.507812 C 32.046875 77.964844 34.972656 77.757812 37.050781 76.300781 L 51.023438 84.839844 C 51.023438 86.515625 51.230469 87.972656 51.4375 89.636719 L 24.742188 95.695312 C 23.492188 94.015625 21.414062 92.976562 19.113281 93.601562 C 16.203125 94.222656 14.316406 97.148438 15.148438 100.074219 C 15.996094 102.984375 18.699219 104.871094 21.625 104.039062 C 23.910156 103.621094 25.378906 101.738281 25.796875 99.65625 L 52.0625 93.601562 C 52.699219 96.316406 53.53125 99.035156 54.570312 101.738281 L 48.945312 113.628906 C 46.851562 113.421875 44.769531 114.667969 43.730469 116.75 C 42.46875 119.464844 43.523438 122.597656 46.226562 123.847656 C 48.945312 125.09375 52.0625 124.054688 53.324219 121.335938 C 54.363281 119.257812 53.949219 116.957031 52.492188 115.292969 L 56.648438 106.324219 C 58.953125 110.707031 62.085938 114.667969 65.632812 118.011719 L 46.433594 137.195312 C 43.941406 136.15625 41.222656 136.777344 39.144531 138.648438 C 36.425781 141.367188 36.425781 145.539062 39.144531 148.242188 C 41.847656 150.957031 46.019531 150.957031 48.734375 148.242188 C 50.605469 146.371094 51.230469 143.445312 50.191406 140.949219 L 69.789062 121.335938 C 72.714844 123.429688 75.640625 125.300781 78.96875 126.769531 L 77.304688 133.230469 C 74.792969 133.644531 72.507812 135.53125 71.882812 138.234375 C 70.84375 141.78125 73.132812 145.539062 76.679688 146.371094 C 80.230469 147.410156 83.96875 145.125 84.816406 141.574219 C 85.441406 138.855469 84.609375 136.15625 82.515625 134.476562 L 84.195312 128.433594 C 88.144531 129.679688 92.109375 130.304688 96.488281 130.511719 L 99.203125 154.507812 C 96.902344 155.753906 95.65625 158.472656 96.070312 161.175781 C 96.488281 164.929688 99.828125 167.441406 103.585938 167.007812 C 107.328125 166.59375 109.835938 163.269531 109.421875 159.511719 C 109.003906 156.585938 106.925781 154.507812 104.625 153.675781 L 101.714844 131.152344 C 107.117188 130.734375 112.34375 129.472656 117.140625 127.1875 L 130.488281 148.878906 C 129.242188 150.542969 129.035156 153.039062 130.28125 154.921875 C 131.738281 157.417969 135.0625 158.265625 137.78125 156.585938 C 140.289062 155.132812 141.121094 151.789062 139.457031 149.085938 C 138.195312 147.203125 136.117188 146.164062 134.039062 146.578125 L 120.882812 125.09375 C 124.640625 123.015625 127.980469 120.503906 131.113281 117.59375 L 140.496094 126.980469 C 139.652344 128.851562 140.082031 131.359375 141.746094 132.8125 C 143.839844 134.894531 147.164062 134.894531 149.257812 132.8125 C 151.335938 130.734375 151.335938 127.394531 149.257812 125.300781 C 147.59375 123.636719 145.292969 123.429688 143.40625 124.054688 L 133.832031 115.085938 C 135.703125 113.007812 137.363281 110.496094 138.835938 108.003906 L 155.507812 116.761719 C 155.300781 119.257812 156.5625 121.976562 159.058594 123.222656 C 162.382812 124.886719 166.363281 123.636719 168.234375 120.503906 C 169.898438 117.179688 168.648438 113.214844 165.515625 111.328125 C 163.023438 110.082031 160.304688 110.289062 158.226562 111.953125 L 141.535156 102.984375 C 142.800781 100.28125 143.617188 97.355469 144.460938 94.222656 L 169.273438 94.222656 C 170.3125 96.523438 172.613281 98.1875 175.523438 98.1875 C 179.28125 98.1875 182.207031 95.070312 182.207031 91.519531 C 181.789062 87.972656 178.867188 84.839844 175.125 84.839844 "/>
</g>
<g clip-path="url(#clip2)" clip-rule="nonzero">
<path style=" stroke:none;fill-rule:nonzero;fill:rgb(58.039856%,92.158508%,95.689392%);fill-opacity:1;" d="M 228.632812 505.257812 C 225.722656 505.257812 223.214844 502.765625 223.214844 499.839844 C 223.214844 496.914062 225.722656 494.421875 228.632812 494.421875 C 231.558594 494.421875 234.066406 496.914062 234.066406 499.839844 C 234.066406 502.972656 231.558594 505.257812 228.632812 505.257812 Z M 226.554688 558.859375 C 222.8125 558.859375 219.886719 555.9375 219.886719 552.195312 C 219.886719 548.4375 222.8125 545.511719 226.554688 545.511719 C 230.3125 545.511719 233.238281 548.4375 233.238281 552.195312 C 233.238281 555.9375 230.105469 558.859375 226.554688 558.859375 Z M 189.640625 520.0625 C 185.886719 520.0625 182.976562 517.152344 182.976562 513.394531 C 182.976562 509.640625 185.886719 506.714844 189.640625 506.714844 C 193.398438 506.714844 196.324219 509.640625 196.324219 513.394531 C 196.324219 517.152344 193.398438 520.0625 189.640625 520.0625 Z M 296.222656 524.234375 C 293.503906 524.234375 290.996094 525.914062 289.957031 528.199219 L 265.976562 528.199219 C 266.183594 526.746094 266.183594 525.082031 266.183594 523.402344 L 266.183594 523.195312 L 278.480469 510.902344 C 280.363281 511.734375 282.859375 511.300781 284.328125 509.847656 C 286.40625 507.769531 286.40625 504.425781 284.328125 502.347656 C 282.25 500.253906 278.910156 500.253906 276.816406 502.347656 C 275.152344 504.011719 274.945312 506.296875 275.570312 508.183594 L 265.769531 517.984375 C 265.351562 514.019531 264.300781 510.054688 262.84375 506.507812 L 275.777344 493.589844 C 278.269531 494.628906 280.988281 494.003906 283.066406 492.117188 C 285.785156 489.417969 285.785156 485.242188 283.066406 482.527344 C 280.363281 479.824219 276.191406 479.824219 273.488281 482.527344 C 271.605469 484.414062 270.980469 487.324219 272.019531 489.832031 L 260.347656 501.503906 C 257.839844 496.707031 254.5 492.535156 250.535156 489 L 253.667969 478.5625 C 255.746094 478.355469 257.632812 476.898438 258.253906 474.820312 C 259.085938 471.894531 257.632812 468.96875 254.722656 468.136719 C 251.796875 467.308594 248.871094 468.761719 248.039062 471.6875 C 247.417969 473.765625 248.039062 476.066406 249.703125 477.523438 L 246.984375 486.492188 C 244.074219 484.414062 240.941406 482.527344 237.617188 481.070312 L 246.167969 463.550781 C 248.664062 463.757812 251.382812 462.304688 252.421875 459.792969 C 254.082031 456.46875 252.628906 452.503906 249.289062 450.824219 C 245.945312 449.164062 241.980469 450.617188 240.320312 453.957031 C 239.070312 456.46875 239.488281 459.378906 241.164062 461.265625 L 232.390625 479.1875 C 229.0625 478.144531 225.722656 477.523438 222.175781 477.316406 L 222.175781 449.996094 C 224.058594 449.164062 225.515625 447.292969 225.515625 444.992188 C 225.515625 442.066406 223.019531 439.570312 220.097656 439.570312 C 217.171875 439.570312 214.675781 442.066406 214.675781 444.992188 C 214.675781 447.292969 215.921875 449.164062 218.003906 449.996094 L 218.003906 476.484375 C 213.621094 476.484375 209.035156 477.316406 204.863281 478.5625 L 201.535156 456.882812 C 203.820312 455.414062 205.070312 452.917969 204.652344 450.203125 C 204.03125 446.445312 200.703125 443.949219 196.949219 444.574219 C 193.191406 445.199219 190.679688 448.539062 191.304688 452.296875 C 191.734375 454.996094 193.816406 457.089844 196.324219 457.714844 L 199.859375 480.449219 C 197.570312 481.488281 195.476562 482.527344 193.605469 483.789062 L 188.1875 478.355469 C 189.019531 476.484375 188.601562 473.972656 186.941406 472.519531 C 184.847656 470.441406 181.503906 470.441406 179.425781 472.519531 C 177.332031 474.613281 177.332031 477.9375 179.425781 480.03125 C 181.089844 481.695312 183.390625 481.902344 185.261719 481.277344 L 190.265625 486.28125 C 186.730469 489 183.597656 492.328125 180.882812 495.875 L 169.417969 484.414062 C 170.457031 481.902344 169.835938 479.1875 167.949219 477.105469 C 165.246094 474.390625 161.074219 474.390625 158.355469 477.105469 C 155.65625 479.824219 155.65625 483.980469 158.355469 486.699219 C 160.242188 488.585938 163.152344 489.207031 165.664062 488.152344 L 177.972656 500.464844 C 175.046875 505.882812 172.953125 511.734375 172.328125 518.191406 L 161.074219 511.300781 C 161.488281 508.808594 160.242188 506.089844 157.941406 504.636719 C 154.824219 502.765625 150.636719 503.597656 148.558594 506.714844 C 146.6875 509.847656 147.519531 514.019531 150.859375 515.90625 C 153.144531 517.359375 156.070312 517.152344 158.148438 515.699219 L 172.121094 524.234375 C 172.121094 525.914062 172.328125 527.367188 172.539062 529.03125 L 145.839844 535.089844 C 144.59375 533.410156 142.515625 532.371094 140.210938 532.996094 C 137.300781 533.621094 135.417969 536.542969 136.25 539.46875 C 137.09375 542.378906 139.796875 544.265625 142.722656 543.433594 C 145.007812 543.019531 146.480469 541.132812 146.894531 539.054688 L 173.160156 532.996094 C 173.800781 535.710938 174.628906 538.429688 175.671875 541.132812 L 170.042969 553.027344 C 167.949219 552.816406 165.871094 554.066406 164.832031 556.144531 C 163.570312 558.859375 164.621094 561.992188 167.324219 563.242188 C 170.042969 564.488281 173.160156 563.449219 174.421875 560.730469 C 175.460938 558.652344 175.046875 556.351562 173.589844 554.6875 L 177.75 545.71875 C 180.050781 550.101562 183.183594 554.066406 186.730469 557.40625 L 167.535156 576.589844 C 165.039062 575.550781 162.320312 576.175781 160.242188 578.046875 C 157.527344 580.761719 157.527344 584.933594 160.242188 587.636719 C 162.945312 590.355469 167.117188 590.355469 169.835938 587.636719 C 171.707031 585.765625 172.328125 582.839844 171.289062 580.347656 L 190.890625 560.730469 C 193.816406 562.824219 196.738281 564.695312 200.066406 566.167969 L 198.402344 572.625 C 195.894531 573.042969 193.605469 574.925781 192.984375 577.628906 C 191.945312 581.179688 194.230469 584.933594 197.777344 585.765625 C 201.328125 586.804688 205.070312 584.519531 205.914062 580.96875 C 206.539062 578.253906 205.707031 575.550781 203.613281 573.871094 L 205.292969 567.828125 C 209.242188 569.078125 213.207031 569.699219 217.585938 569.90625 L 220.304688 593.902344 C 218.003906 595.148438 216.753906 597.867188 217.171875 600.570312 C 217.585938 604.328125 220.925781 606.835938 224.683594 606.40625 C 228.425781 605.988281 230.933594 602.664062 230.519531 598.90625 C 230.105469 595.980469 228.023438 593.902344 225.722656 593.070312 L 222.8125 570.546875 C 228.21875 570.128906 233.445312 568.867188 238.242188 566.582031 L 251.589844 588.273438 C 250.339844 589.9375 250.132812 592.433594 251.382812 594.320312 C 252.835938 596.8125 256.164062 597.660156 258.878906 595.980469 C 261.390625 594.527344 262.21875 591.1875 260.558594 588.484375 C 259.296875 586.597656 257.214844 585.558594 255.136719 585.972656 L 241.980469 564.488281 C 245.738281 562.410156 249.078125 559.902344 252.210938 556.988281 L 261.597656 566.375 C 260.75 568.246094 261.179688 570.753906 262.84375 572.210938 C 264.9375 574.289062 268.261719 574.289062 270.355469 572.210938 C 272.4375 570.128906 272.4375 566.789062 270.355469 564.695312 C 268.695312 563.035156 266.390625 562.824219 264.507812 563.449219 L 254.929688 554.480469 C 256.800781 552.402344 258.464844 549.894531 259.933594 547.398438 L 276.609375 556.160156 C 276.398438 558.652344 277.664062 561.371094 280.15625 562.617188 C 283.484375 564.28125 287.460938 563.035156 289.332031 559.902344 C 290.996094 556.574219 289.75 552.609375 286.617188 550.722656 C 284.121094 549.476562 281.402344 549.683594 279.324219 551.347656 L 262.636719 542.378906 C 263.898438 539.675781 264.714844 536.753906 265.5625 533.621094 L 290.371094 533.621094 C 291.410156 535.921875 293.714844 537.582031 296.625 537.582031 C 300.378906 537.582031 303.304688 534.464844 303.304688 530.917969 C 302.890625 527.367188 299.964844 524.234375 296.222656 524.234375 "/>
</g>
<g clip-path="url(#clip3)" clip-rule="nonzero">
<path style=" stroke:none;fill-rule:nonzero;fill:rgb(58.039856%,92.158508%,95.689392%);fill-opacity:1;" d="M 680.980469 110.527344 C 678.070312 110.527344 675.5625 108.03125 675.5625 105.105469 C 675.5625 102.179688 678.070312 99.6875 680.980469 99.6875 C 683.90625 99.6875 686.414062 102.179688 686.414062 105.105469 C 686.414062 108.238281 683.90625 110.527344 680.980469 110.527344 Z M 678.902344 164.128906 C 675.160156 164.128906 672.234375 161.203125 672.234375 157.460938 C 672.234375 153.703125 675.160156 150.777344 678.902344 150.777344 C 682.660156 150.777344 685.582031 153.703125 685.582031 157.460938 C 685.582031 161.203125 682.449219 164.128906 678.902344 164.128906 Z M 641.988281 125.328125 C 638.234375 125.328125 635.324219 122.417969 635.324219 118.664062 C 635.324219 114.90625 638.234375 111.980469 641.988281 111.980469 C 645.746094 111.980469 648.671875 114.90625 648.671875 118.664062 C 648.671875 122.417969 645.746094 125.328125 641.988281 125.328125 Z M 748.570312 129.5 C 745.851562 129.5 743.34375 131.179688 742.304688 133.464844 L 718.324219 133.464844 C 718.53125 132.011719 718.53125 130.347656 718.53125 128.671875 L 718.53125 128.460938 L 730.824219 116.167969 C 732.710938 117 735.207031 116.570312 736.675781 115.113281 C 738.753906 113.035156 738.753906 109.695312 736.675781 107.617188 C 734.597656 105.523438 731.257812 105.523438 729.164062 107.617188 C 727.5 109.277344 727.292969 111.566406 727.914062 113.449219 L 718.117188 123.25 C 717.699219 119.285156 716.644531 115.320312 715.191406 111.773438 L 728.125 98.855469 C 730.617188 99.894531 733.335938 99.269531 735.414062 97.386719 C 738.132812 94.683594 738.132812 90.511719 735.414062 87.792969 C 732.710938 85.089844 728.539062 85.089844 725.835938 87.792969 C 723.953125 89.679688 723.328125 92.589844 724.367188 95.097656 L 712.695312 106.769531 C 710.1875 101.972656 706.847656 97.800781 702.882812 94.265625 L 706.015625 83.828125 C 708.09375 83.621094 709.980469 82.164062 710.601562 80.085938 C 711.433594 77.160156 709.980469 74.238281 707.070312 73.40625 C 704.144531 72.574219 701.21875 74.027344 700.386719 76.953125 C 699.765625 79.03125 700.386719 81.335938 702.050781 82.789062 L 699.332031 91.757812 C 696.421875 89.679688 693.289062 87.792969 689.964844 86.339844 L 698.515625 68.816406 C 701.011719 69.023438 703.726562 67.570312 704.765625 65.058594 C 706.429688 61.734375 704.976562 57.769531 701.632812 56.09375 C 698.292969 54.429688 694.328125 55.882812 692.667969 59.226562 C 691.417969 61.734375 691.835938 64.644531 693.511719 66.53125 L 684.738281 84.453125 C 681.410156 83.414062 678.070312 82.789062 674.523438 82.582031 L 674.523438 55.261719 C 676.40625 54.429688 677.863281 52.558594 677.863281 50.257812 C 677.863281 47.332031 675.367188 44.835938 672.441406 44.835938 C 669.519531 44.835938 667.023438 47.332031 667.023438 50.257812 C 667.023438 52.558594 668.269531 54.429688 670.347656 55.261719 L 670.347656 81.75 C 665.96875 81.75 661.382812 82.582031 657.207031 83.828125 L 653.882812 62.148438 C 656.167969 60.679688 657.417969 58.1875 657 55.46875 C 656.378906 51.710938 653.050781 49.21875 649.292969 49.839844 C 645.539062 50.464844 643.027344 53.804688 643.652344 57.5625 C 644.082031 60.265625 646.160156 62.359375 648.671875 62.980469 L 652.203125 85.714844 C 649.917969 86.753906 647.824219 87.792969 645.953125 89.054688 L 640.535156 83.621094 C 641.367188 81.75 640.949219 79.242188 639.285156 77.785156 C 637.195312 75.707031 633.851562 75.707031 631.773438 77.785156 C 629.679688 79.878906 629.679688 83.203125 631.773438 85.296875 C 633.4375 86.960938 635.738281 87.167969 637.609375 86.546875 L 642.613281 91.550781 C 639.078125 94.265625 635.945312 97.59375 633.230469 101.140625 L 621.765625 89.679688 C 622.804688 87.167969 622.183594 84.453125 620.296875 82.375 C 617.59375 79.65625 613.421875 79.65625 610.703125 82.375 C 608 85.089844 608 89.25 610.703125 91.964844 C 612.589844 93.851562 615.5 94.476562 618.007812 93.421875 L 630.320312 105.730469 C 627.394531 111.148438 625.300781 117 624.675781 123.457031 L 613.421875 116.570312 C 613.835938 114.074219 612.589844 111.355469 610.289062 109.902344 C 607.171875 108.03125 602.984375 108.863281 600.90625 111.980469 C 599.035156 115.113281 599.863281 119.285156 603.207031 121.171875 C 605.492188 122.625 608.417969 122.417969 610.496094 120.964844 L 624.46875 129.5 C 624.46875 131.179688 624.675781 132.632812 624.882812 134.296875 L 598.1875 140.355469 C 596.941406 138.679688 594.859375 137.636719 592.558594 138.261719 C 589.648438 138.886719 587.765625 141.8125 588.59375 144.734375 C 589.441406 147.644531 592.144531 149.53125 595.070312 148.699219 C 597.355469 148.285156 598.824219 146.398438 599.242188 144.320312 L 625.507812 138.261719 C 626.144531 140.980469 626.976562 143.695312 628.015625 146.398438 L 622.390625 158.292969 C 620.296875 158.085938 618.21875 159.332031 617.179688 161.410156 C 615.914062 164.128906 616.96875 167.261719 619.671875 168.507812 C 622.390625 169.753906 625.507812 168.714844 626.769531 166 C 627.808594 163.917969 627.394531 161.617188 625.9375 159.957031 L 630.097656 150.988281 C 632.398438 155.367188 635.53125 159.332031 639.078125 162.671875 L 619.878906 181.855469 C 617.386719 180.816406 614.667969 181.441406 612.589844 183.3125 C 609.871094 186.027344 609.871094 190.199219 612.589844 192.902344 C 615.292969 195.621094 619.464844 195.621094 622.183594 192.902344 C 624.054688 191.03125 624.675781 188.109375 623.636719 185.613281 L 643.238281 166 C 646.160156 168.09375 649.085938 169.964844 652.414062 171.433594 L 650.75 177.890625 C 648.242188 178.308594 645.953125 180.195312 645.332031 182.894531 C 644.289062 186.445312 646.578125 190.199219 650.125 191.03125 C 653.675781 192.070312 657.417969 189.785156 658.261719 186.238281 C 658.886719 183.519531 658.054688 180.816406 655.960938 179.140625 L 657.640625 173.097656 C 661.589844 174.34375 665.554688 174.96875 669.933594 175.175781 L 672.652344 199.167969 C 670.347656 200.417969 669.101562 203.132812 669.519531 205.835938 C 669.933594 209.59375 673.273438 212.101562 677.03125 211.671875 C 680.773438 211.253906 683.28125 207.929688 682.867188 204.171875 C 682.449219 201.25 680.371094 199.167969 678.070312 198.335938 L 675.160156 175.8125 C 680.566406 175.398438 685.792969 174.136719 690.585938 171.847656 L 703.9375 193.542969 C 702.6875 195.203125 702.480469 197.699219 703.726562 199.585938 C 705.183594 202.078125 708.507812 202.925781 711.226562 201.25 C 713.734375 199.792969 714.566406 196.453125 712.90625 193.75 C 711.640625 191.863281 709.5625 190.824219 707.484375 191.242188 L 694.328125 169.753906 C 698.085938 167.675781 701.425781 165.167969 704.558594 162.257812 L 713.945312 171.640625 C 713.097656 173.511719 713.527344 176.019531 715.191406 177.476562 C 717.285156 179.554688 720.609375 179.554688 722.703125 177.476562 C 724.78125 175.398438 724.78125 172.054688 722.703125 169.964844 C 721.042969 168.300781 718.738281 168.09375 716.855469 168.714844 L 707.277344 159.746094 C 709.148438 157.667969 710.8125 155.160156 712.28125 152.664062 L 728.957031 161.425781 C 728.746094 163.917969 730.007812 166.636719 732.503906 167.882812 C 735.828125 169.546875 739.808594 168.300781 741.679688 165.167969 C 743.34375 161.839844 742.097656 157.875 738.964844 155.992188 C 736.46875 154.742188 733.75 154.953125 731.671875 156.613281 L 714.984375 147.644531 C 716.246094 144.945312 717.0625 142.019531 717.90625 138.886719 L 742.71875 138.886719 C 743.757812 141.1875 746.058594 142.851562 748.96875 142.851562 C 752.726562 142.851562 755.652344 139.730469 755.652344 136.183594 C 755.238281 132.632812 752.3125 129.5 748.570312 129.5 "/>
</g>
<g clip-path="url(#clip4)" clip-rule="nonzero">
<path style=" stroke:none;fill-rule:nonzero;fill:rgb(58.039856%,92.158508%,95.689392%);fill-opacity:1;" d="M 848.113281 640.164062 C 845.203125 640.164062 842.695312 637.667969 842.695312 634.746094 C 842.695312 631.820312 845.203125 629.324219 848.113281 629.324219 C 851.039062 629.324219 853.546875 631.820312 853.546875 634.746094 C 853.546875 637.878906 851.039062 640.164062 848.113281 640.164062 Z M 846.035156 693.765625 C 842.292969 693.765625 839.367188 690.839844 839.367188 687.097656 C 839.367188 683.34375 842.292969 680.417969 846.035156 680.417969 C 849.792969 680.417969 852.71875 683.34375 852.71875 687.097656 C 852.71875 690.839844 849.585938 693.765625 846.035156 693.765625 Z M 809.121094 654.96875 C 805.367188 654.96875 802.457031 652.058594 802.457031 648.300781 C 802.457031 644.542969 805.367188 641.617188 809.121094 641.617188 C 812.878906 641.617188 815.804688 644.542969 815.804688 648.300781 C 815.804688 652.058594 812.878906 654.96875 809.121094 654.96875 Z M 915.703125 659.140625 C 912.984375 659.140625 910.476562 660.816406 909.4375 663.105469 L 885.457031 663.105469 C 885.664062 661.648438 885.664062 659.984375 885.664062 658.308594 L 885.664062 658.101562 L 897.960938 645.804688 C 899.84375 646.636719 902.339844 646.207031 903.808594 644.753906 C 905.886719 642.671875 905.886719 639.332031 903.808594 637.253906 C 901.730469 635.160156 898.390625 635.160156 896.296875 637.253906 C 894.632812 638.917969 894.425781 641.203125 895.050781 643.089844 L 885.25 652.890625 C 884.832031 648.925781 883.78125 644.960938 882.324219 641.410156 L 895.257812 628.492188 C 897.75 629.53125 900.46875 628.910156 902.546875 627.023438 C 905.265625 624.320312 905.265625 620.148438 902.546875 617.429688 C 899.84375 614.730469 895.671875 614.730469 892.96875 617.429688 C 891.085938 619.316406 890.460938 622.226562 891.5 624.738281 L 879.828125 636.40625 C 877.320312 631.613281 873.980469 627.4375 870.015625 623.90625 L 873.148438 613.46875 C 875.226562 613.257812 877.113281 611.804688 877.738281 609.726562 C 878.566406 606.800781 877.113281 603.875 874.203125 603.042969 C 871.277344 602.210938 868.351562 603.667969 867.519531 606.59375 C 866.898438 608.671875 867.519531 610.972656 869.183594 612.425781 L 866.464844 621.394531 C 863.554688 619.316406 860.421875 617.429688 857.097656 615.976562 L 865.648438 598.457031 C 868.144531 598.664062 870.863281 597.207031 871.902344 594.699219 C 873.5625 591.371094 872.109375 587.410156 868.769531 585.730469 C 865.425781 584.066406 861.460938 585.523438 859.800781 588.863281 C 858.550781 591.371094 858.96875 594.28125 860.644531 596.167969 L 851.871094 614.089844 C 848.542969 613.050781 845.203125 612.425781 841.65625 612.21875 L 841.65625 584.898438 C 843.539062 584.066406 844.996094 582.195312 844.996094 579.894531 C 844.996094 576.96875 842.5 574.476562 839.578125 574.476562 C 836.652344 574.476562 834.15625 576.96875 834.15625 579.894531 C 834.15625 582.195312 835.402344 584.066406 837.484375 584.898438 L 837.484375 611.386719 C 833.101562 611.386719 828.515625 612.21875 824.34375 613.46875 L 821.015625 591.789062 C 823.304688 590.320312 824.550781 587.824219 824.132812 585.105469 C 823.511719 581.351562 820.183594 578.855469 816.429688 579.480469 C 812.671875 580.101562 810.164062 583.445312 810.785156 587.199219 C 811.214844 589.902344 813.296875 591.996094 815.804688 592.621094 L 819.339844 615.351562 C 817.050781 616.390625 814.957031 617.429688 813.085938 618.695312 L 807.667969 613.257812 C 808.5 611.386719 808.082031 608.878906 806.421875 607.421875 C 804.328125 605.34375 800.984375 605.34375 798.90625 607.421875 C 796.8125 609.515625 796.8125 612.84375 798.90625 614.9375 C 800.570312 616.601562 802.871094 616.808594 804.742188 616.183594 L 809.746094 621.1875 C 806.210938 623.90625 803.078125 627.230469 800.363281 630.78125 L 788.898438 619.316406 C 789.9375 616.808594 789.316406 614.089844 787.429688 612.011719 C 784.726562 609.292969 780.554688 609.292969 777.835938 612.011719 C 775.136719 614.730469 775.136719 618.886719 777.835938 621.605469 C 779.722656 623.488281 782.632812 624.113281 785.144531 623.058594 L 797.453125 635.367188 C 794.527344 640.789062 792.433594 646.636719 791.808594 653.097656 L 780.554688 646.207031 C 780.96875 643.710938 779.722656 640.996094 777.421875 639.539062 C 774.304688 637.667969 770.117188 638.5 768.039062 641.617188 C 766.167969 644.753906 767 648.925781 770.339844 650.808594 C 772.625 652.265625 775.550781 652.058594 777.628906 650.601562 L 791.601562 659.140625 C 791.601562 660.816406 791.808594 662.273438 792.019531 663.9375 L 765.320312 669.992188 C 764.074219 668.316406 761.996094 667.277344 759.691406 667.902344 C 756.78125 668.523438 754.898438 671.449219 755.730469 674.375 C 756.574219 677.285156 759.277344 679.171875 762.203125 678.339844 C 764.488281 677.921875 765.960938 676.039062 766.375 673.957031 L 792.640625 667.902344 C 793.28125 670.617188 794.113281 673.335938 795.152344 676.039062 L 789.523438 687.929688 C 787.429688 687.722656 785.351562 688.96875 784.3125 691.046875 C 783.050781 693.765625 784.105469 696.898438 786.804688 698.144531 C 789.523438 699.394531 792.640625 698.355469 793.902344 695.636719 C 794.941406 693.558594 794.527344 691.257812 793.070312 689.59375 L 797.230469 680.625 C 799.53125 685.003906 802.664062 688.96875 806.210938 692.3125 L 787.015625 711.496094 C 784.519531 710.457031 781.800781 711.078125 779.722656 712.949219 C 777.007812 715.667969 777.007812 719.839844 779.722656 722.542969 C 782.425781 725.257812 786.597656 725.257812 789.316406 722.542969 C 791.1875 720.671875 791.808594 717.746094 790.769531 715.25 L 810.371094 695.636719 C 813.296875 697.730469 816.21875 699.601562 819.546875 701.070312 L 817.882812 707.53125 C 815.375 707.945312 813.085938 709.832031 812.464844 712.535156 C 811.425781 716.082031 813.710938 719.839844 817.257812 720.671875 C 820.808594 721.710938 824.550781 719.421875 825.394531 715.875 C 826.019531 713.15625 825.1875 710.457031 823.09375 708.777344 L 824.773438 702.734375 C 828.722656 703.980469 832.6875 704.605469 837.066406 704.8125 L 839.785156 728.808594 C 837.484375 730.054688 836.234375 732.773438 836.652344 735.472656 C 837.066406 739.230469 840.40625 741.742188 844.164062 741.308594 C 847.90625 740.894531 850.414062 737.566406 850 733.8125 C 849.585938 730.886719 847.503906 728.808594 845.203125 727.976562 L 842.292969 705.453125 C 847.699219 705.035156 852.925781 703.773438 857.722656 701.488281 L 871.070312 723.179688 C 869.820312 724.84375 869.613281 727.335938 870.863281 729.222656 C 872.316406 731.71875 875.644531 732.5625 878.359375 730.886719 C 880.871094 729.429688 881.699219 726.089844 880.039062 723.386719 C 878.777344 721.503906 876.695312 720.464844 874.617188 720.878906 L 861.460938 699.394531 C 865.21875 697.316406 868.558594 694.804688 871.691406 691.894531 L 881.078125 701.277344 C 880.230469 703.148438 880.660156 705.660156 882.324219 707.113281 C 884.417969 709.191406 887.742188 709.191406 889.835938 707.113281 C 891.917969 705.035156 891.917969 701.695312 889.835938 699.601562 C 888.175781 697.9375 885.875 697.730469 883.988281 698.355469 L 874.410156 689.386719 C 876.28125 687.308594 877.945312 684.796875 879.414062 682.304688 L 896.089844 691.0625 C 895.878906 693.558594 897.144531 696.273438 899.636719 697.523438 C 902.964844 699.183594 906.941406 697.9375 908.8125 694.804688 C 910.476562 691.480469 909.230469 687.515625 906.097656 685.628906 C 903.601562 684.382812 900.882812 684.589844 898.804688 686.253906 L 882.117188 677.285156 C 883.378906 674.582031 884.195312 671.65625 885.042969 668.523438 L 909.851562 668.523438 C 910.890625 670.824219 913.195312 672.488281 916.105469 672.488281 C 919.859375 672.488281 922.785156 669.371094 922.785156 665.820312 C 922.371094 662.273438 919.445312 659.140625 915.703125 659.140625 "/>
</g>
<g clip-path="url(#clip5)" clip-rule="nonzero">
<path style=" stroke:none;fill-rule:nonzero;fill:rgb(58.039856%,92.158508%,95.689392%);fill-opacity:1;" d="M 1428.804688 757.386719 C 1425.894531 757.386719 1423.386719 754.890625 1423.386719 751.96875 C 1423.386719 749.042969 1425.894531 746.546875 1428.804688 746.546875 C 1431.730469 746.546875 1434.242188 749.042969 1434.242188 751.96875 C 1434.242188 755.101562 1431.730469 757.386719 1428.804688 757.386719 Z M 1426.726562 810.988281 C 1422.984375 810.988281 1420.058594 808.0625 1420.058594 804.320312 C 1420.058594 800.566406 1422.984375 797.640625 1426.726562 797.640625 C 1430.484375 797.640625 1433.410156 800.566406 1433.410156 804.320312 C 1433.410156 808.0625 1430.277344 810.988281 1426.726562 810.988281 Z M 1389.816406 772.191406 C 1386.058594 772.191406 1383.148438 769.28125 1383.148438 765.523438 C 1383.148438 761.765625 1386.058594 758.839844 1389.816406 758.839844 C 1393.570312 758.839844 1396.496094 761.765625 1396.496094 765.523438 C 1396.496094 769.28125 1393.570312 772.191406 1389.816406 772.191406 Z M 1496.394531 776.363281 C 1493.675781 776.363281 1491.167969 778.039062 1490.128906 780.328125 L 1466.148438 780.328125 C 1466.355469 778.871094 1466.355469 777.207031 1466.355469 775.53125 L 1466.355469 775.324219 L 1478.652344 763.027344 C 1480.535156 763.859375 1483.03125 763.429688 1484.5 761.976562 C 1486.582031 759.894531 1486.582031 756.554688 1484.5 754.476562 C 1482.421875 752.382812 1479.082031 752.382812 1476.988281 754.476562 C 1475.324219 756.140625 1475.117188 758.425781 1475.742188 760.3125 L 1465.941406 770.113281 C 1465.527344 766.148438 1464.472656 762.183594 1463.015625 758.632812 L 1475.949219 745.714844 C 1478.441406 746.753906 1481.160156 746.132812 1483.238281 744.246094 C 1485.957031 741.542969 1485.957031 737.371094 1483.238281 734.652344 C 1480.535156 731.953125 1476.363281 731.953125 1473.664062 734.652344 C 1471.777344 736.539062 1471.152344 739.449219 1472.191406 741.960938 L 1460.523438 753.628906 C 1458.011719 748.835938 1454.671875 744.660156 1450.707031 741.128906 L 1453.839844 730.691406 C 1455.917969 730.480469 1457.804688 729.027344 1458.429688 726.949219 C 1459.257812 724.023438 1457.804688 721.097656 1454.894531 720.265625 C 1451.96875 719.433594 1449.042969 720.890625 1448.210938 723.816406 C 1447.589844 725.894531 1448.210938 728.195312 1449.875 729.648438 L 1447.15625 738.617188 C 1444.246094 736.539062 1441.113281 734.652344 1437.789062 733.199219 L 1446.339844 715.679688 C 1448.835938 715.886719 1451.554688 714.429688 1452.59375 711.921875 C 1454.253906 708.59375 1452.800781 704.632812 1449.460938 702.953125 C 1446.117188 701.289062 1442.15625 702.746094 1440.492188 706.085938 C 1439.242188 708.59375 1439.660156 711.503906 1441.335938 713.390625 L 1432.5625 731.3125 C 1429.238281 730.273438 1425.894531 729.648438 1422.347656 729.441406 L 1422.347656 702.121094 C 1424.234375 701.289062 1425.6875 699.417969 1425.6875 697.117188 C 1425.6875 694.191406 1423.191406 691.699219 1420.269531 691.699219 C 1417.34375 691.699219 1414.847656 694.191406 1414.847656 697.117188 C 1414.847656 699.417969 1416.097656 701.289062 1418.175781 702.121094 L 1418.175781 728.609375 C 1413.792969 728.609375 1409.207031 729.441406 1405.035156 730.691406 L 1401.707031 709.011719 C 1403.996094 707.542969 1405.242188 705.046875 1404.824219 702.328125 C 1404.203125 698.574219 1400.875 696.078125 1397.121094 696.703125 C 1393.363281 697.324219 1390.855469 700.667969 1391.476562 704.421875 C 1391.90625 707.125 1393.988281 709.21875 1396.496094 709.84375 L 1400.03125 732.574219 C 1397.742188 733.613281 1395.648438 734.652344 1393.777344 735.917969 L 1388.359375 730.480469 C 1389.191406 728.609375 1388.773438 726.101562 1387.113281 724.644531 C 1385.019531 722.566406 1381.675781 722.566406 1379.597656 724.644531 C 1377.503906 726.738281 1377.503906 730.066406 1379.597656 732.160156 C 1381.261719 733.824219 1383.5625 734.03125 1385.433594 733.40625 L 1390.4375 738.410156 C 1386.902344 741.128906 1383.769531 744.453125 1381.054688 748.003906 L 1369.589844 736.539062 C 1370.628906 734.03125 1370.007812 731.3125 1368.121094 729.234375 C 1365.417969 726.515625 1361.246094 726.515625 1358.53125 729.234375 C 1355.828125 731.953125 1355.828125 736.109375 1358.53125 738.828125 C 1360.414062 740.710938 1363.324219 741.335938 1365.835938 740.28125 L 1378.144531 752.589844 C 1375.21875 758.011719 1373.125 763.859375 1372.5 770.320312 L 1361.246094 763.429688 C 1361.664062 760.933594 1360.414062 758.21875 1358.113281 756.761719 C 1354.996094 754.890625 1350.808594 755.722656 1348.730469 758.839844 C 1346.859375 761.976562 1347.691406 766.148438 1351.03125 768.03125 C 1353.316406 769.488281 1356.242188 769.28125 1358.320312 767.824219 L 1372.292969 776.363281 C 1372.292969 778.039062 1372.5 779.496094 1372.710938 781.160156 L 1346.011719 787.214844 C 1344.765625 785.539062 1342.6875 784.5 1340.386719 785.121094 C 1337.476562 785.746094 1335.589844 788.671875 1336.421875 791.597656 C 1337.265625 794.507812 1339.96875 796.394531 1342.894531 795.5625 C 1345.179688 795.144531 1346.652344 793.261719 1347.066406 791.179688 L 1373.332031 785.121094 C 1373.972656 787.839844 1374.804688 790.558594 1375.84375 793.261719 L 1370.214844 805.152344 C 1368.121094 804.945312 1366.042969 806.191406 1365.003906 808.269531 C 1363.742188 810.988281 1364.796875 814.121094 1367.496094 815.367188 C 1370.214844 816.617188 1373.332031 815.578125 1374.59375 812.859375 C 1375.632812 810.78125 1375.21875 808.480469 1373.761719 806.816406 L 1377.921875 797.847656 C 1380.222656 802.226562 1383.355469 806.191406 1386.902344 809.535156 L 1367.707031 828.71875 C 1365.210938 827.679688 1362.492188 828.300781 1360.414062 830.171875 C 1357.699219 832.890625 1357.699219 837.0625 1360.414062 839.765625 C 1363.117188 842.480469 1367.289062 842.480469 1370.007812 839.765625 C 1371.878906 837.894531 1372.5 834.96875 1371.460938 832.472656 L 1391.0625 812.859375 C 1393.988281 814.953125 1396.910156 816.824219 1400.238281 818.292969 L 1398.574219 824.753906 C 1396.066406 825.167969 1393.777344 827.054688 1393.15625 829.757812 C 1392.117188 833.304688 1394.402344 837.0625 1397.953125 837.894531 C 1401.5 838.933594 1405.242188 836.644531 1406.089844 833.097656 C 1406.710938 830.378906 1405.878906 827.679688 1403.785156 826 L 1405.464844 819.957031 C 1409.414062 821.203125 1413.378906 821.828125 1417.757812 822.035156 L 1420.476562 846.03125 C 1418.175781 847.277344 1416.925781 849.996094 1417.34375 852.695312 C 1417.757812 856.453125 1421.101562 858.964844 1424.855469 858.53125 C 1428.597656 858.117188 1431.105469 854.789062 1430.691406 851.035156 C 1430.277344 848.109375 1428.195312 846.03125 1425.894531 845.199219 L 1422.984375 822.675781 C 1428.390625 822.257812 1433.617188 820.996094 1438.414062 818.710938 L 1451.761719 840.402344 C 1450.515625 842.066406 1450.304688 844.558594 1451.554688 846.445312 C 1453.007812 848.941406 1456.335938 849.785156 1459.050781 848.109375 C 1461.5625 846.652344 1462.390625 843.3125 1460.730469 840.609375 C 1459.46875 838.726562 1457.386719 837.6875 1455.308594 838.101562 L 1442.15625 816.617188 C 1445.910156 814.539062 1449.25 812.027344 1452.382812 809.117188 L 1461.769531 818.5 C 1460.921875 820.371094 1461.351562 822.882812 1463.015625 824.335938 C 1465.109375 826.414062 1468.4375 826.414062 1470.527344 824.335938 C 1472.609375 822.257812 1472.609375 818.917969 1470.527344 816.824219 C 1468.867188 815.160156 1466.566406 814.953125 1464.679688 815.578125 L 1455.101562 806.609375 C 1456.972656 804.53125 1458.636719 802.019531 1460.105469 799.527344 L 1476.78125 808.285156 C 1476.574219 810.78125 1477.835938 813.496094 1480.328125 814.746094 C 1483.65625 816.40625 1487.632812 815.160156 1489.503906 812.027344 C 1491.167969 808.703125 1489.921875 804.738281 1486.789062 802.851562 C 1484.292969 801.605469 1481.578125 801.8125 1479.496094 803.476562 L 1462.808594 794.507812 C 1464.070312 791.804688 1464.886719 788.878906 1465.734375 785.746094 L 1490.542969 785.746094 C 1491.582031 788.046875 1493.886719 789.710938 1496.796875 789.710938 C 1500.550781 789.710938 1503.476562 786.59375 1503.476562 783.042969 C 1503.0625 779.496094 1500.136719 776.363281 1496.394531 776.363281 "/>
</g>
<g clip-path="url(#clip6)" clip-rule="nonzero">
<path style=" stroke:none;fill-rule:nonzero;fill:rgb(58.039856%,92.158508%,95.689392%);fill-opacity:1;" d="M 1399.144531 290.207031 C 1396.234375 290.207031 1393.722656 287.714844 1393.722656 284.789062 C 1393.722656 281.863281 1396.234375 279.371094 1399.144531 279.371094 C 1402.070312 279.371094 1404.578125 281.863281 1404.578125 284.789062 C 1404.578125 287.921875 1402.070312 290.207031 1399.144531 290.207031 Z M 1397.066406 343.808594 C 1393.324219 343.808594 1390.398438 340.886719 1390.398438 337.144531 C 1390.398438 333.386719 1393.324219 330.460938 1397.066406 330.460938 C 1400.820312 330.460938 1403.746094 333.386719 1403.746094 337.144531 C 1403.746094 340.886719 1400.613281 343.808594 1397.066406 343.808594 Z M 1360.152344 305.011719 C 1356.394531 305.011719 1353.484375 302.101562 1353.484375 298.34375 C 1353.484375 294.589844 1356.394531 291.664062 1360.152344 291.664062 C 1363.910156 291.664062 1366.835938 294.589844 1366.835938 298.34375 C 1366.835938 302.101562 1363.910156 305.011719 1360.152344 305.011719 Z M 1466.734375 309.183594 C 1464.015625 309.183594 1461.507812 310.863281 1460.46875 313.148438 L 1436.488281 313.148438 C 1436.695312 311.695312 1436.695312 310.03125 1436.695312 308.351562 L 1436.695312 308.144531 L 1448.988281 295.851562 C 1450.875 296.683594 1453.371094 296.25 1454.839844 294.796875 C 1456.917969 292.71875 1456.917969 289.375 1454.839844 287.296875 C 1452.761719 285.203125 1449.417969 285.203125 1447.324219 287.296875 C 1445.664062 288.960938 1445.457031 291.246094 1446.078125 293.132812 L 1436.277344 302.933594 C 1435.863281 298.96875 1434.808594 295.003906 1433.355469 291.457031 L 1446.285156 278.539062 C 1448.78125 279.578125 1451.5 278.953125 1453.578125 277.066406 C 1456.292969 274.367188 1456.292969 270.191406 1453.578125 267.476562 C 1450.875 264.773438 1446.703125 264.773438 1444 267.476562 C 1442.113281 269.363281 1441.492188 272.273438 1442.53125 274.78125 L 1430.859375 286.453125 C 1428.351562 281.65625 1425.007812 277.484375 1421.042969 273.949219 L 1424.179688 263.511719 C 1426.257812 263.304688 1428.140625 261.847656 1428.765625 259.769531 C 1429.597656 256.84375 1428.140625 253.917969 1425.230469 253.085938 C 1422.308594 252.257812 1419.382812 253.710938 1418.550781 256.636719 C 1417.925781 258.714844 1418.550781 261.015625 1420.214844 262.472656 L 1417.496094 271.441406 C 1414.585938 269.363281 1411.453125 267.476562 1408.125 266.019531 L 1416.679688 248.5 C 1419.175781 248.707031 1421.890625 247.253906 1422.929688 244.742188 C 1424.59375 241.417969 1423.136719 237.453125 1419.796875 235.773438 C 1416.457031 234.113281 1412.492188 235.566406 1410.828125 238.90625 C 1409.582031 241.417969 1409.996094 244.328125 1411.675781 246.214844 L 1402.898438 264.136719 C 1399.574219 263.09375 1396.234375 262.472656 1392.683594 262.265625 L 1392.683594 234.945312 C 1394.570312 234.113281 1396.027344 232.242188 1396.027344 229.941406 C 1396.027344 227.015625 1393.53125 224.519531 1390.605469 224.519531 C 1387.679688 224.519531 1385.1875 227.015625 1385.1875 229.941406 C 1385.1875 232.242188 1386.433594 234.113281 1388.511719 234.945312 L 1388.511719 261.433594 C 1384.132812 261.433594 1379.542969 262.265625 1375.371094 263.511719 L 1372.046875 241.832031 C 1374.332031 240.363281 1375.578125 237.867188 1375.164062 235.152344 C 1374.539062 231.394531 1371.214844 228.898438 1367.457031 229.523438 C 1363.699219 230.148438 1361.191406 233.488281 1361.816406 237.246094 C 1362.246094 239.945312 1364.324219 242.039062 1366.835938 242.664062 L 1370.367188 265.398438 C 1368.082031 266.4375 1365.988281 267.476562 1364.117188 268.738281 L 1358.699219 263.304688 C 1359.527344 261.433594 1359.113281 258.921875 1357.449219 257.46875 C 1355.355469 255.390625 1352.015625 255.390625 1349.9375 257.46875 C 1347.84375 259.5625 1347.84375 262.886719 1349.9375 264.980469 C 1351.601562 266.644531 1353.902344 266.851562 1355.773438 266.230469 L 1360.777344 271.230469 C 1357.242188 273.949219 1354.109375 277.277344 1351.390625 280.824219 L 1339.929688 269.363281 C 1340.96875 266.851562 1340.34375 264.136719 1338.460938 262.054688 C 1335.757812 259.339844 1331.585938 259.339844 1328.867188 262.054688 C 1326.164062 264.773438 1326.164062 268.929688 1328.867188 271.648438 C 1330.753906 273.535156 1333.664062 274.15625 1336.171875 273.101562 L 1348.480469 285.414062 C 1345.558594 290.832031 1343.464844 296.683594 1342.839844 303.140625 L 1331.585938 296.25 C 1332 293.757812 1330.753906 291.039062 1328.453125 289.585938 C 1325.332031 287.714844 1321.144531 288.546875 1319.066406 291.664062 C 1317.195312 294.796875 1318.027344 298.96875 1321.367188 300.855469 C 1323.65625 302.308594 1326.582031 302.101562 1328.660156 300.648438 L 1342.632812 309.183594 C 1342.632812 310.863281 1342.839844 312.316406 1343.046875 313.980469 L 1316.351562 320.039062 C 1315.101562 318.359375 1313.023438 317.320312 1310.722656 317.945312 C 1307.8125 318.570312 1305.925781 321.492188 1306.757812 324.417969 C 1307.605469 327.328125 1310.308594 329.214844 1313.230469 328.382812 C 1315.519531 327.96875 1316.988281 326.082031 1317.40625 324.003906 L 1343.671875 317.945312 C 1344.308594 320.660156 1345.140625 323.378906 1346.179688 326.082031 L 1340.554688 337.976562 C 1338.460938 337.765625 1336.378906 339.015625 1335.339844 341.09375 C 1334.078125 343.808594 1335.132812 346.941406 1337.835938 348.191406 C 1340.554688 349.4375 1343.671875 348.398438 1344.933594 345.679688 C 1345.972656 343.601562 1345.558594 341.300781 1344.101562 339.636719 L 1348.257812 330.667969 C 1350.558594 335.050781 1353.695312 339.015625 1357.242188 342.355469 L 1338.042969 361.539062 C 1335.550781 360.5 1332.832031 361.125 1330.753906 362.996094 C 1328.035156 365.710938 1328.035156 369.882812 1330.753906 372.585938 C 1333.457031 375.304688 1337.628906 375.304688 1340.34375 372.585938 C 1342.214844 370.714844 1342.839844 367.789062 1341.800781 365.296875 L 1361.398438 345.679688 C 1364.324219 347.773438 1367.25 349.644531 1370.574219 351.117188 L 1368.914062 357.574219 C 1366.402344 357.992188 1364.117188 359.875 1363.492188 362.578125 C 1362.453125 366.128906 1364.742188 369.882812 1368.289062 370.714844 C 1371.839844 371.753906 1375.578125 369.46875 1376.425781 365.917969 C 1377.050781 363.203125 1376.21875 360.5 1374.125 358.820312 L 1375.800781 352.777344 C 1379.753906 354.027344 1383.714844 354.648438 1388.097656 354.855469 L 1390.8125 378.851562 C 1388.511719 380.097656 1387.265625 382.816406 1387.679688 385.519531 C 1388.097656 389.277344 1391.4375 391.785156 1395.195312 391.355469 C 1398.9375 390.9375 1401.445312 387.613281 1401.03125 383.855469 C 1400.613281 380.929688 1398.535156 378.851562 1396.234375 378.019531 L 1393.324219 355.496094 C 1398.726562 355.082031 1403.953125 353.816406 1408.75 351.53125 L 1422.097656 373.222656 C 1420.851562 374.886719 1420.644531 377.382812 1421.890625 379.269531 C 1423.347656 381.761719 1426.671875 382.609375 1429.390625 380.929688 C 1431.898438 379.476562 1432.730469 376.136719 1431.066406 373.433594 C 1429.804688 371.546875 1427.726562 370.507812 1425.648438 370.921875 L 1412.492188 349.4375 C 1416.25 347.359375 1419.589844 344.851562 1422.722656 341.9375 L 1432.105469 351.324219 C 1431.261719 353.195312 1431.691406 355.703125 1433.355469 357.160156 C 1435.449219 359.238281 1438.773438 359.238281 1440.867188 357.160156 C 1442.945312 355.082031 1442.945312 351.738281 1440.867188 349.644531 C 1439.203125 347.984375 1436.902344 347.773438 1435.015625 348.398438 L 1425.441406 339.429688 C 1427.3125 337.351562 1428.972656 334.84375 1430.445312 332.347656 L 1447.117188 341.109375 C 1446.910156 343.601562 1448.171875 346.320312 1450.667969 347.566406 C 1453.992188 349.230469 1457.972656 347.984375 1459.84375 344.851562 C 1461.507812 341.523438 1460.257812 337.558594 1457.125 335.671875 C 1454.632812 334.425781 1451.914062 334.632812 1449.835938 336.296875 L 1433.144531 327.328125 C 1434.410156 324.625 1435.226562 321.703125 1436.070312 318.570312 L 1460.882812 318.570312 C 1461.921875 320.871094 1464.222656 322.53125 1467.132812 322.53125 C 1470.890625 322.53125 1473.816406 319.414062 1473.816406 315.867188 C 1473.398438 312.316406 1470.472656 309.183594 1466.734375 309.183594 "/>
</g>
</g>
</svg>
